<?xml version="1.0" encoding="iso-8859-1"?>
<!-- Generator: Adobe Illustrator 19.0.0, SVG Export Plug-In . SVG Version: 6.00 Build 0)  -->
<svg version="1.1" id="Capa_1" xmlns="http://www.w3.org/2000/svg" xmlns:xlink="http://www.w3.org/1999/xlink" x="0px" y="0px"
	 viewBox="0 0 512 512" style="enable-background:new 0 0 512 512;" xml:space="preserve">
<path style="fill:#E7ECED;" d="M406.051,512H105.949c-14.636,0-26.5-11.864-26.5-26.5V26.5c0-14.636,11.864-26.5,26.5-26.5h300.094
	c14.645,0,26.509,11.864,26.509,26.5v458.99C432.552,500.136,420.687,512,406.051,512z"/>
<path style="fill:#BEC5C6;" d="M291.31,485.517H114.759c-4.873,0-8.828-3.946-8.828-8.828V211.862c0-4.882,3.955-8.828,8.828-8.828
	s8.828,3.946,8.828,8.828v256H291.31c4.873,0,8.828,3.946,8.828,8.828C300.138,481.571,296.183,485.517,291.31,485.517z"/>
<g>
	<polygon style="fill:#DD352E;" points="167.724,70.621 141.241,105.931 114.759,70.621 141.241,35.31 	"/>
	<polygon style="fill:#DD352E;" points="397.241,441.379 370.759,476.69 344.276,441.379 370.759,406.069 	"/>
	<polygon style="fill:#DD352E;" points="335.448,256 256,361.931 176.552,256 256,150.069 	"/>
</g>
<path style="fill:#BEC5C6;" d="M397.241,308.966c-4.873,0-8.828-3.946-8.828-8.828v-256H220.69c-4.873,0-8.828-3.946-8.828-8.828
	s3.955-8.828,8.828-8.828h176.552c4.873,0,8.828,3.946,8.828,8.828v264.828C406.069,305.02,402.114,308.966,397.241,308.966z"/>
<g>
</g>
<g>
</g>
<g>
</g>
<g>
</g>
<g>
</g>
<g>
</g>
<g>
</g>
<g>
</g>
<g>
</g>
<g>
</g>
<g>
</g>
<g>
</g>
<g>
</g>
<g>
</g>
<g>
</g>
</svg>
