<?xml version="1.0" encoding="iso-8859-1"?>
<!-- Generator: Adobe Illustrator 19.0.0, SVG Export Plug-In . SVG Version: 6.00 Build 0)  -->
<svg version="1.1" id="Capa_1" xmlns="http://www.w3.org/2000/svg" xmlns:xlink="http://www.w3.org/1999/xlink" x="0px" y="0px"
	 viewBox="0 0 512 512" style="enable-background:new 0 0 512 512;" xml:space="preserve">
<path style="fill:#E7ECED;" d="M406.051,512H105.949c-14.636,0-26.5-11.864-26.5-26.5V26.5c0-14.636,11.864-26.5,26.5-26.5h300.094
	c14.645,0,26.509,11.864,26.509,26.5v458.99C432.552,500.136,420.687,512,406.051,512z"/>
<g>
	<path style="fill:#BEC5C6;" d="M291.31,485.517H114.759c-4.873,0-8.828-3.946-8.828-8.828V211.862c0-4.882,3.955-8.828,8.828-8.828
		s8.828,3.946,8.828,8.828v256H291.31c4.873,0,8.828,3.946,8.828,8.828C300.138,481.571,296.183,485.517,291.31,485.517z"/>
	<path style="fill:#BEC5C6;" d="M397.241,308.966c-4.873,0-8.828-3.946-8.828-8.828v-256H220.69c-4.873,0-8.828-3.946-8.828-8.828
		s3.955-8.828,8.828-8.828h176.552c4.873,0,8.828,3.946,8.828,8.828v264.828C406.069,305.02,402.114,308.966,397.241,308.966z"/>
</g>
<g>
	<path style="fill:#DD352E;" d="M150.034,48.331c2.701-7.38,8.474-13.021,15.651-13.021c6.038,0,11.008,3.425,15.051,8.077
		c5.367,6.17,7.759,20.348-2.189,31.029c-5.058,5.42-28.46,31.514-28.46,31.514s-23.393-26.094-28.442-31.514
		c-9.958-10.681-7.68-24.858-2.189-31.029c4.087-4.599,9.004-8.077,15.042-8.077C141.674,35.31,147.332,40.951,150.034,48.331
		L150.034,48.331z"/>
	<path style="fill:#DD352E;" d="M361.896,419.09c2.701-7.38,8.474-13.021,15.651-13.021c6.038,0,11.008,3.425,15.051,8.077
		c5.367,6.171,7.759,20.348-2.189,31.029c-5.058,5.42-28.46,31.514-28.46,31.514s-23.393-26.094-28.442-31.514
		c-9.958-10.681-7.68-24.858-2.189-31.029c4.087-4.599,9.004-8.077,15.042-8.077C353.536,406.069,359.194,411.71,361.896,419.09
		L361.896,419.09z"/>
	<path style="fill:#DD352E;" d="M256,203.034c6.753-18.45,21.098-35.31,39.027-35.31c15.104,0,27.516,8.572,37.614,20.18
		c13.427,15.431,19.412,50.873-5.482,77.577C314.536,279.031,256,344.276,256,344.276s-58.43-65.245-71.053-78.795
		c-24.885-26.703-19.2-62.146-5.482-77.577c10.222-11.494,22.51-20.18,37.614-20.18C235.017,167.724,249.247,184.585,256,203.034
		L256,203.034z"/>
</g>
<g>
</g>
<g>
</g>
<g>
</g>
<g>
</g>
<g>
</g>
<g>
</g>
<g>
</g>
<g>
</g>
<g>
</g>
<g>
</g>
<g>
</g>
<g>
</g>
<g>
</g>
<g>
</g>
<g>
</g>
</svg>
