<?xml version="1.0" encoding="iso-8859-1"?>
<!-- Generator: Adobe Illustrator 19.0.0, SVG Export Plug-In . SVG Version: 6.00 Build 0)  -->
<svg version="1.1" id="Capa_1" xmlns="http://www.w3.org/2000/svg" xmlns:xlink="http://www.w3.org/1999/xlink" x="0px" y="0px"
	 viewBox="0 0 512 512" style="enable-background:new 0 0 512 512;" xml:space="preserve">
<path style="fill:#E7ECED;" d="M406.051,512H105.949c-14.636,0-26.5-11.864-26.5-26.5V26.5c0-14.636,11.864-26.5,26.5-26.5h300.094
	c14.645,0,26.509,11.864,26.509,26.5v458.99C432.552,500.136,420.687,512,406.051,512z"/>
<g>
	<path style="fill:#BEC5C6;" d="M291.31,485.517H114.759c-4.873,0-8.828-3.946-8.828-8.828V211.862c0-4.882,3.955-8.828,8.828-8.828
		s8.828,3.946,8.828,8.828v256H291.31c4.873,0,8.828,3.946,8.828,8.828C300.138,481.571,296.183,485.517,291.31,485.517z"/>
	<path style="fill:#BEC5C6;" d="M397.241,308.966c-4.873,0-8.828-3.946-8.828-8.828v-256H220.69c-4.873,0-8.828-3.946-8.828-8.828
		s3.955-8.828,8.828-8.828h176.552c4.873,0,8.828,3.946,8.828,8.828v264.828C406.069,305.02,402.114,308.966,397.241,308.966z"/>
</g>
<g>
	<path style="fill:#28384C;" d="M150.104,92.91c-2.701,7.38-8.474,13.021-15.651,13.021c-6.038,0-11.008-3.425-15.051-8.077
		c-5.358-6.17-7.759-20.348,2.198-31.029c5.049-5.42,28.451-31.514,28.451-31.514s23.393,26.094,28.442,31.514
		c9.958,10.681,7.68,24.858,2.189,31.029c-4.087,4.599-9.004,8.077-15.042,8.077C158.464,105.931,152.806,100.29,150.104,92.91
		L150.104,92.91z"/>
	<path style="fill:#28384C;" d="M256,282.483c-6.753,18.45-21.098,35.31-39.027,35.31c-15.104,0-27.516-8.572-37.614-20.18
		c-13.427-15.431-19.412-50.873,5.482-77.577C197.464,206.486,256,141.241,256,141.241s58.43,65.245,71.053,78.795
		c24.885,26.703,19.2,62.146,5.482,77.577c-10.222,11.494-22.51,20.18-37.614,20.18C276.983,317.793,262.753,300.932,256,282.483
		L256,282.483z"/>
</g>
<path style="fill:#47586B;" d="M150.069,141.241c-4.873,0-8.828-3.946-8.828-8.828v-35.31c0-4.882,3.955-8.828,8.828-8.828
	c4.873,0,8.828,3.946,8.828,8.828v35.31C158.897,137.295,154.942,141.241,150.069,141.241z"/>
<path style="fill:#28384C;" d="M361.966,437.186c-2.701,7.38-8.475,13.021-15.651,13.021c-6.038,0-11.008-3.425-15.051-8.077
	c-5.367-6.171-7.759-20.348,2.189-31.029c5.049-5.42,28.442-31.514,28.442-31.514s23.393,26.094,28.442,31.514
	c9.957,10.681,7.68,24.859,2.189,31.029c-4.069,4.599-8.986,8.077-15.025,8.077C370.326,450.207,364.668,444.566,361.966,437.186
	L361.966,437.186z"/>
<g>
	<path style="fill:#47586B;" d="M361.931,485.517c-4.873,0-8.828-3.946-8.828-8.828v-35.31c0-4.882,3.955-8.828,8.828-8.828
		s8.828,3.946,8.828,8.828v35.31C370.759,481.571,366.804,485.517,361.931,485.517z"/>
	<path style="fill:#47586B;" d="M256,282.483c0,43.917,28.566,79.448,52.966,79.448H203.034C227.434,361.931,256,326.4,256,282.483"
		/>
</g>
<g>
</g>
<g>
</g>
<g>
</g>
<g>
</g>
<g>
</g>
<g>
</g>
<g>
</g>
<g>
</g>
<g>
</g>
<g>
</g>
<g>
</g>
<g>
</g>
<g>
</g>
<g>
</g>
<g>
</g>
</svg>
