<?xml version="1.0" encoding="iso-8859-1"?>
<!-- Generator: Adobe Illustrator 19.0.0, SVG Export Plug-In . SVG Version: 6.00 Build 0)  -->
<svg version="1.1" id="Capa_1" xmlns="http://www.w3.org/2000/svg" xmlns:xlink="http://www.w3.org/1999/xlink" x="0px" y="0px"
	 viewBox="0 0 512 512" style="enable-background:new 0 0 512 512;" xml:space="preserve">
<path style="fill:#CFD8DC;" d="M128,0h256c29.455,0,53.333,23.878,53.333,53.333v405.333C437.333,488.122,413.455,512,384,512H128
	c-29.455,0-53.333-23.878-53.333-53.333V53.333C74.667,23.878,98.545,0,128,0z"/>
<g>
	<path style="fill:#455A64;" d="M192,149.333c-4.443,0-8.42-2.754-9.984-6.912L160,83.712l-22.016,58.709
		c-2.074,5.52-8.229,8.314-13.749,6.24c-5.52-2.074-8.314-8.229-6.24-13.749l32-85.333c2.685-5.52,9.337-7.818,14.857-5.132
		c2.237,1.088,4.044,2.895,5.132,5.132l32,85.333c2.074,5.514-0.715,11.665-6.229,13.739
		C194.554,149.102,193.282,149.333,192,149.333z"/>
	<path style="fill:#455A64;" d="M181.333,128h-42.667c-5.891,0-10.667-4.776-10.667-10.667s4.776-10.667,10.667-10.667h42.667
		c5.891,0,10.667,4.776,10.667,10.667S187.224,128,181.333,128z"/>
	<path style="fill:#455A64;" d="M352,469.333c-4.443,0-8.42-2.754-9.984-6.912l-32-85.333c-2.074-5.52,0.72-11.676,6.24-13.749
		c5.52-2.074,11.676,0.72,13.749,6.24L352,428.288l22.016-58.709c2.074-5.52,8.229-8.314,13.749-6.24
		c5.52,2.074,8.314,8.229,6.24,13.749l-32,85.333C360.439,466.587,356.451,469.342,352,469.333z"/>
	<path style="fill:#455A64;" d="M373.333,405.333h-42.667c-5.891,0-10.667-4.776-10.667-10.667c0-5.891,4.776-10.667,10.667-10.667
		h42.667c5.891,0,10.667,4.776,10.667,10.667C384,400.558,379.224,405.333,373.333,405.333z"/>
</g>
<path style="fill:#546E7A;" d="M320,213.333c-3.966,0.033-7.921,0.418-11.819,1.152c0.734-3.898,1.119-7.853,1.152-11.819
	c0-29.455-23.878-53.333-53.333-53.333c-29.455,0-53.333,23.878-53.333,53.333c0.033,3.966,0.418,7.921,1.152,11.819
	c-3.898-0.734-7.853-1.119-11.819-1.152c-29.455,0-53.333,23.878-53.333,53.333C138.667,296.122,162.545,320,192,320
	c12.187-0.413,24.166-3.279,35.221-8.427c-3.498,12.27-7.81,24.293-12.907,35.989c-2.451,5.357-0.095,11.687,5.263,14.137
	c1.388,0.635,2.896,0.965,4.423,0.967h64c5.891,0.004,10.67-4.769,10.673-10.66c0.001-1.534-0.329-3.049-0.967-4.444
	c-5.097-11.697-9.408-23.72-12.907-35.989c11.048,5.145,23.02,8.01,35.2,8.427c29.455,0,53.333-23.878,53.333-53.333
	C373.333,237.211,349.455,213.333,320,213.333z"/>
<g>
</g>
<g>
</g>
<g>
</g>
<g>
</g>
<g>
</g>
<g>
</g>
<g>
</g>
<g>
</g>
<g>
</g>
<g>
</g>
<g>
</g>
<g>
</g>
<g>
</g>
<g>
</g>
<g>
</g>
</svg>
